<?xml version="1.0" encoding="UTF-8" standalone="no"?><svg xmlns="http://www.w3.org/2000/svg" xmlns:xlink="http://www.w3.org/1999/xlink" contentStyleType="text/css" height="631px" preserveAspectRatio="none" style="width:432px;height:631px;background:#FFFFFF;" version="1.1" viewBox="0 0 432 631" width="432px" zoomAndPan="magnify"><defs/><g><!--MD5=[c4d2f13e270707b29bc0178a3f0c9b6c]
cluster microservice-kubernetes-demo--><g id="cluster_microservice-kubernetes-demo"><polygon fill="none" points="16,16,26,6,415,6,415,459,405,469,16,469,16,16" style="stroke:#181818;stroke-width:1.0;"/><line style="stroke:#181818;stroke-width:1.0;" x1="405" x2="415" y1="16" y2="6"/><line style="stroke:#181818;stroke-width:1.0;" x1="16" x2="405" y1="16" y2="16"/><line style="stroke:#181818;stroke-width:1.0;" x1="405" x2="405" y1="16" y2="469"/><text fill="#000000" font-family="sans-serif" font-size="14" font-weight="bold" lengthAdjust="spacing" textLength="222" x="100.5" y="34.1074">microservice-kubernetes-demo</text></g><!--MD5=[b1a37ddebaea755f3c5b50dd79452b03]
cluster demoCatalogCustomer--><g id="cluster_demoCatalogCustomer"><rect fill="none" height="102" rx="2.5" ry="2.5" style="stroke:#181818;stroke-width:1.0;stroke-dasharray:7.0,7.0;" width="351" x="40" y="56"/><text fill="#000000" font-family="sans-serif" font-size="14" font-weight="bold" lengthAdjust="spacing" textLength="166" x="132.5" y="73.1074">demo-catalog-customer</text></g><!--MD5=[c196d8beaffca70a84ba6b39156f3cd5]
cluster demoOrder--><g id="cluster_demoOrder"><rect fill="none" height="102" rx="2.5" ry="2.5" style="stroke:#181818;stroke-width:1.0;stroke-dasharray:7.0,7.0;" width="156" x="137" y="223"/><text fill="#000000" font-family="sans-serif" font-size="14" font-weight="bold" lengthAdjust="spacing" textLength="83" x="173.5" y="240.1074">demo-order</text></g><!--MD5=[93739039574f70115ea07e49b6a8c076]
entity apacheHttp--><g id="elem_apacheHttp"><rect fill="#F1F1F1" height="48.6211" rx="2.5" ry="2.5" style="stroke:#181818;stroke-width:0.5;" width="116" x="157" y="404"/><rect fill="#F1F1F1" height="10" style="stroke:#181818;stroke-width:0.5;" width="15" x="253" y="409"/><rect fill="#F1F1F1" height="2" style="stroke:#181818;stroke-width:0.5;" width="4" x="251" y="411"/><rect fill="#F1F1F1" height="2" style="stroke:#181818;stroke-width:0.5;" width="4" x="251" y="415"/><text fill="#000000" font-family="sans-serif" font-size="14" lengthAdjust="spacing" textLength="76" x="172" y="439.1074">apache-http</text></g><!--MD5=[307fcf1ac587d995cdd473ca6249c460]
entity catalogService--><g id="elem_catalogService"><rect fill="#F1F1F1" height="48.6211" rx="2.5" ry="2.5" style="stroke:#181818;stroke-width:0.5;" width="136" x="56" y="93"/><rect fill="#F1F1F1" height="10" style="stroke:#181818;stroke-width:0.5;" width="15" x="172" y="98"/><rect fill="#F1F1F1" height="2" style="stroke:#181818;stroke-width:0.5;" width="4" x="170" y="100"/><rect fill="#F1F1F1" height="2" style="stroke:#181818;stroke-width:0.5;" width="4" x="170" y="104"/><text fill="#000000" font-family="sans-serif" font-size="14" lengthAdjust="spacing" textLength="96" x="71" y="128.1074">catalog-service</text></g><!--MD5=[56a27ee63330785e4c7dffb868b14680]
entity customerService--><g id="elem_customerService"><rect fill="#F1F1F1" height="48.6211" rx="2.5" ry="2.5" style="stroke:#181818;stroke-width:0.5;" width="148" x="227" y="93"/><rect fill="#F1F1F1" height="10" style="stroke:#181818;stroke-width:0.5;" width="15" x="355" y="98"/><rect fill="#F1F1F1" height="2" style="stroke:#181818;stroke-width:0.5;" width="4" x="353" y="100"/><rect fill="#F1F1F1" height="2" style="stroke:#181818;stroke-width:0.5;" width="4" x="353" y="104"/><text fill="#000000" font-family="sans-serif" font-size="14" lengthAdjust="spacing" textLength="108" x="242" y="128.1074">customer-service</text></g><!--MD5=[bbcdbc4a7a2929ceb9b262f5fbbfa9e9]
entity orderService--><g id="elem_orderService"><rect fill="#F1F1F1" height="48.6211" rx="2.5" ry="2.5" style="stroke:#181818;stroke-width:0.5;" width="124" x="153" y="260"/><rect fill="#F1F1F1" height="10" style="stroke:#181818;stroke-width:0.5;" width="15" x="257" y="265"/><rect fill="#F1F1F1" height="2" style="stroke:#181818;stroke-width:0.5;" width="4" x="255" y="267"/><rect fill="#F1F1F1" height="2" style="stroke:#181818;stroke-width:0.5;" width="4" x="255" y="271"/><text fill="#000000" font-family="sans-serif" font-size="14" lengthAdjust="spacing" textLength="84" x="168" y="295.1074">order-service</text></g><!--MD5=[8fc3522a43f8c7199df5e09e5bb0188e]
entity user--><g id="elem_user"><ellipse cx="215" cy="556.5" fill="#F1F1F1" rx="8" ry="8" style="stroke:#181818;stroke-width:0.5;"/><path d="M215,564.5 L215,591.5 M202,572.5 L228,572.5 M215,591.5 L202,606.5 M215,591.5 L228,606.5 " fill="none" style="stroke:#181818;stroke-width:0.5;"/><text fill="#000000" font-family="sans-serif" font-size="14" lengthAdjust="spacing" textLength="28" x="201" y="623.1074">user</text></g><!--MD5=[9ad278ad51a0a0a88b6cb1a0eff0616a]
link apacheHttp to user--><g id="link_apacheHttp_user"><path d="M215,453 C215,478.07 215,518.16 215,547.88 " fill="none" id="apacheHttp-user" style="stroke:#181818;stroke-width:1.0;"/><text fill="#000000" font-family="sans-serif" font-size="13" lengthAdjust="spacing" textLength="32" x="223" y="507.0283">HTTP</text><path d="M207.9289,505.7673 A10,10 0 0 0 222.0711 505.7673" fill="none" style="stroke:#181818;stroke-width:1.5;"/><ellipse cx="215" cy="498.6962" fill="#FFFFFF" rx="6" ry="6" style="stroke:#181818;stroke-width:1.5;"/></g><!--MD5=[df99375ec059ba1910f3807e627a5bc9]
link catalogService to apacheHttp--><g id="link_catalogService_apacheHttp"><path d="M110.95,142.11 C90.13,183.17 54.9,269.41 87,333 C102.93,364.56 134.93,388.19 162.95,403.92 " fill="none" id="catalogService-apacheHttp" style="stroke:#181818;stroke-width:1.0;"/><text fill="#000000" font-family="sans-serif" font-size="13" lengthAdjust="spacing" textLength="34" x="95" y="290.0283">REST</text><path d="M70.7381,234.5447 A10,10 0 0 0 84.5685 237.4981" fill="none" style="stroke:#181818;stroke-width:1.5;"/><ellipse cx="79.13" cy="229.1063" fill="#FFFFFF" rx="6" ry="6" style="stroke:#181818;stroke-width:1.5;"/></g><!--MD5=[0704f5aac48ed41e1334b358c6438dfe]
link customerService to apacheHttp--><g id="link_customerService_apacheHttp"><path d="M303.26,142.12 C306.4,182.11 309.94,265.4 293,333 C288.07,352.67 285.1,357.74 273,374 C264.98,384.77 254.61,395.13 244.85,403.83 " fill="none" id="customerService-apacheHttp" style="stroke:#181818;stroke-width:1.0;"/><text fill="#000000" font-family="sans-serif" font-size="13" lengthAdjust="spacing" textLength="34" x="313" y="290.0283">REST</text><path d="M298.4178,234.1019 A10,10 0 0 0 312.5557 234.4485" fill="none" style="stroke:#181818;stroke-width:1.5;"/><ellipse cx="305.66" cy="227.2062" fill="#FFFFFF" rx="6" ry="6" style="stroke:#181818;stroke-width:1.5;"/></g><!--MD5=[8357b073305a7ecbb6e38f1716b0b0da]
link orderService to apacheHttp--><g id="link_orderService_apacheHttp"><path d="M215,309.27 C215,335.48 215,377.41 215,403.65 " fill="none" id="orderService-apacheHttp" style="stroke:#181818;stroke-width:1.0;"/><text fill="#000000" font-family="sans-serif" font-size="13" lengthAdjust="spacing" textLength="34" x="223" y="363.0283">REST</text><path d="M207.9289,363.5198 A10,10 0 0 0 222.0711 363.5198" fill="none" style="stroke:#181818;stroke-width:1.5;"/><ellipse cx="215" cy="356.4487" fill="#FFFFFF" rx="6" ry="6" style="stroke:#181818;stroke-width:1.5;"/></g><!--MD5=[66cbf4c08a0018c7f3463cbe8258e9c8]
link catalogService to orderService--><g id="link_catalogService_orderService"><path d="M126.32,142.19 C128.9,160.71 134.21,186.63 145,207 C155.62,227.05 172.74,245.89 187.39,259.86 " fill="none" id="catalogService-orderService" style="stroke:#181818;stroke-width:1.0;"/><text fill="#000000" font-family="sans-serif" font-size="13" lengthAdjust="spacing" textLength="34" x="153" y="196.0283">REST</text><path d="M142.0613,216.5585 A10,10 0 0 0 154.5585 209.9387" fill="none" style="stroke:#181818;stroke-width:1.5;"/><ellipse cx="145" cy="207" fill="#FFFFFF" rx="6" ry="6" style="stroke:#181818;stroke-width:1.5;"/></g><!--MD5=[922d421daf7bc4ebc0becae2deb8b585]
link customerService to orderService--><g id="link_customerService_orderService"><path d="M245.13,142 C232.32,150.17 220.33,160.71 213,174 C198.4,200.47 202.71,236.3 208.07,259.65 " fill="none" id="customerService-orderService" style="stroke:#181818;stroke-width:1.0;"/><text fill="#000000" font-family="sans-serif" font-size="13" lengthAdjust="spacing" textLength="34" x="221" y="196.0283">REST</text><path d="M195.9429,225.0299 A10,10 0 0 0 210.0849 225.1021" fill="none" style="stroke:#181818;stroke-width:1.5;"/><ellipse cx="203.05" cy="217.995" fill="#FFFFFF" rx="6" ry="6" style="stroke:#181818;stroke-width:1.5;"/></g><!--MD5=[7962d6546f018cd5393ac0d70f7e8189]
@startuml
'https://plantuml.com/component-diagram

actor user
node "microservice-kubernetes-demo" {
    rectangle "demo-catalog-customer" as demoCatalogCustomer #line.dashed {
        component "catalog-service" as catalogService
        component "customer-service" as customerService
    }

    rectangle "demo-order" as demoOrder #line.dashed {
        component "order-service" as orderService
    }

    component "apache-http" as apacheHttp
}

user -up(0- apacheHttp: HTTP

catalogService -0)- apacheHttp: REST
customerService -0)- apacheHttp: REST
orderService -0)- apacheHttp: REST

catalogService -right0)- orderService: REST
customerService -down0)- orderService: REST
@enduml

@startuml

actor user
node "microservice-kubernetes-demo" {
    rectangle "demo-catalog-customer" as demoCatalogCustomer #line.dashed {
        component "catalog-service" as catalogService
        component "customer-service" as customerService
    }

    rectangle "demo-order" as demoOrder #line.dashed {
        component "order-service" as orderService
    }

    component "apache-http" as apacheHttp
}

user -up(0- apacheHttp: HTTP

catalogService -0)- apacheHttp: REST
customerService -0)- apacheHttp: REST
orderService -0)- apacheHttp: REST

catalogService -right0)- orderService: REST
customerService -down0)- orderService: REST
@enduml

PlantUML version 1.2022.13(Sat Nov 19 14:22:17 CET 2022)
(GPL source distribution)
Java Runtime: OpenJDK Runtime Environment
JVM: OpenJDK 64-Bit Server VM
Default Encoding: Cp1252
Language: en
Country: US
--></g></svg>