<?xml version="1.0" encoding="UTF-8" standalone="no"?><svg xmlns="http://www.w3.org/2000/svg" xmlns:xlink="http://www.w3.org/1999/xlink" contentStyleType="text/css" height="349px" preserveAspectRatio="none" style="width:613px;height:349px;background:#FFFFFF;" version="1.1" viewBox="0 0 613 349" width="613px" zoomAndPan="magnify"><defs/><g><!--MD5=[c4d2f13e270707b29bc0178a3f0c9b6c]
cluster microservice-kubernetes-demo--><g id="cluster_microservice-kubernetes-demo"><polygon fill="none" points="16,16,26,6,596,6,596,212,586,222,16,222,16,16" style="stroke:#181818;stroke-width:1.0;"/><line style="stroke:#181818;stroke-width:1.0;" x1="586" x2="596" y1="16" y2="6"/><line style="stroke:#181818;stroke-width:1.0;" x1="16" x2="586" y1="16" y2="16"/><line style="stroke:#181818;stroke-width:1.0;" x1="586" x2="586" y1="16" y2="222"/><text fill="#000000" font-family="sans-serif" font-size="14" font-weight="bold" lengthAdjust="spacing" textLength="222" x="191" y="34.1074">microservice-kubernetes-demo</text></g><!--MD5=[307fcf1ac587d995cdd473ca6249c460]
entity catalogService--><g id="elem_catalogService"><rect fill="#F1F1F1" height="48.6211" rx="2.5" ry="2.5" style="stroke:#181818;stroke-width:0.5;" width="136" x="32" y="48"/><rect fill="#F1F1F1" height="10" style="stroke:#181818;stroke-width:0.5;" width="15" x="148" y="53"/><rect fill="#F1F1F1" height="2" style="stroke:#181818;stroke-width:0.5;" width="4" x="146" y="55"/><rect fill="#F1F1F1" height="2" style="stroke:#181818;stroke-width:0.5;" width="4" x="146" y="59"/><text fill="#000000" font-family="sans-serif" font-size="14" lengthAdjust="spacing" textLength="96" x="47" y="83.1074">catalog-service</text></g><!--MD5=[56a27ee63330785e4c7dffb868b14680]
entity customerService--><g id="elem_customerService"><rect fill="#F1F1F1" height="48.6211" rx="2.5" ry="2.5" style="stroke:#181818;stroke-width:0.5;" width="148" x="432" y="48"/><rect fill="#F1F1F1" height="10" style="stroke:#181818;stroke-width:0.5;" width="15" x="560" y="53"/><rect fill="#F1F1F1" height="2" style="stroke:#181818;stroke-width:0.5;" width="4" x="558" y="55"/><rect fill="#F1F1F1" height="2" style="stroke:#181818;stroke-width:0.5;" width="4" x="558" y="59"/><text fill="#000000" font-family="sans-serif" font-size="14" lengthAdjust="spacing" textLength="108" x="447" y="83.1074">customer-service</text></g><!--MD5=[bbcdbc4a7a2929ceb9b262f5fbbfa9e9]
entity orderService--><g id="elem_orderService"><rect fill="#F1F1F1" height="48.6211" rx="2.5" ry="2.5" style="stroke:#181818;stroke-width:0.5;" width="124" x="238" y="48"/><rect fill="#F1F1F1" height="10" style="stroke:#181818;stroke-width:0.5;" width="15" x="342" y="53"/><rect fill="#F1F1F1" height="2" style="stroke:#181818;stroke-width:0.5;" width="4" x="340" y="55"/><rect fill="#F1F1F1" height="2" style="stroke:#181818;stroke-width:0.5;" width="4" x="340" y="59"/><text fill="#000000" font-family="sans-serif" font-size="14" lengthAdjust="spacing" textLength="84" x="253" y="83.1074">order-service</text></g><!--MD5=[93739039574f70115ea07e49b6a8c076]
entity apacheHttp--><g id="elem_apacheHttp"><rect fill="#F1F1F1" height="48.6211" rx="2.5" ry="2.5" style="stroke:#181818;stroke-width:0.5;" width="116" x="242" y="157"/><rect fill="#F1F1F1" height="10" style="stroke:#181818;stroke-width:0.5;" width="15" x="338" y="162"/><rect fill="#F1F1F1" height="2" style="stroke:#181818;stroke-width:0.5;" width="4" x="336" y="164"/><rect fill="#F1F1F1" height="2" style="stroke:#181818;stroke-width:0.5;" width="4" x="336" y="168"/><text fill="#000000" font-family="sans-serif" font-size="14" lengthAdjust="spacing" textLength="76" x="257" y="192.1074">apache-http</text></g><!--MD5=[8fc3522a43f8c7199df5e09e5bb0188e]
entity user--><g id="elem_user"><ellipse cx="300" cy="274.5" fill="#F1F1F1" rx="8" ry="8" style="stroke:#181818;stroke-width:0.5;"/><path d="M300,282.5 L300,309.5 M287,290.5 L313,290.5 M300,309.5 L287,324.5 M300,309.5 L313,324.5 " fill="none" style="stroke:#181818;stroke-width:0.5;"/><text fill="#000000" font-family="sans-serif" font-size="14" lengthAdjust="spacing" textLength="28" x="286" y="341.1074">user</text></g><!--MD5=[66cbf4c08a0018c7f3463cbe8258e9c8]
link catalogService to orderService--><!--MD5=[66cbf4c08a0018c7f3463cbe8258e9c8]
link catalogService to orderService--><g id="link_catalogService_orderService"><path d="M168.27,81 C190.79,81 215.7,81 237.75,81 " fill="none" id="catalogService-orderService" style="stroke:#181818;stroke-width:1.0;"/><text fill="#000000" font-family="sans-serif" font-size="13" lengthAdjust="spacing" textLength="34" x="186.01" y="103.0283">REST</text><path d="M196.1152,73.9289 A10,10 0 0 0 196.1152 88.0711" fill="none" style="stroke:#181818;stroke-width:1.5;"/><ellipse cx="203.1863" cy="81" fill="#FFFFFF" rx="6" ry="6" style="stroke:#181818;stroke-width:1.5;"/></g><!--MD5=[8808e3508943be5ad4b293dfe09810f2]
link orderService to customerService--><!--MD5=[8808e3508943be5ad4b293dfe09810f2]
link orderService to customerService--><g id="link_orderService_customerService"><path d="M362.09,65 C384,65 408.87,65 431.69,65 " fill="none" id="orderService-customerService" style="stroke:#181818;stroke-width:1.0;"/><text fill="#000000" font-family="sans-serif" font-size="13" lengthAdjust="spacing" textLength="34" x="379.89" y="87.0283">REST</text><path d="M403.6198,72.0711 A10,10 0 0 0 403.6198 57.9289" fill="none" style="stroke:#181818;stroke-width:1.5;"/><ellipse cx="396.5488" cy="65" fill="#FFFFFF" rx="6" ry="6" style="stroke:#181818;stroke-width:1.5;"/></g><!--MD5=[8357b073305a7ecbb6e38f1716b0b0da]
link orderService to apacheHttp--><!--MD5=[8357b073305a7ecbb6e38f1716b0b0da]
link orderService to apacheHttp--><g id="link_orderService_apacheHttp"><path d="M280.67,97.23 C280.67,115.07 280.67,139.05 280.67,156.86 " fill="none" id="orderService-apacheHttp" style="stroke:#181818;stroke-width:1.0;"/><text fill="#000000" font-family="sans-serif" font-size="13" lengthAdjust="spacing" textLength="34" x="238.67" y="116.0783">REST</text><path d="M287.7411,119.9852 A10,10 0 0 0 273.5989 119.9852" fill="none" style="stroke:#181818;stroke-width:1.5;"/><ellipse cx="280.67" cy="127.0562" fill="#FFFFFF" rx="6" ry="6" style="stroke:#181818;stroke-width:1.5;"/></g><!--MD5=[f176cd17515e79cf83aaa2a68ceaf64c]
reverse link apacheHttp to user--><g id="link_apacheHttp_user"><path d="M300,211.3 C300,211.3 300,265.62 300,265.62 " fill="none" id="apacheHttp-backto-user" style="stroke:#181818;stroke-width:1.0;"/><polygon fill="#181818" points="300,206.3,296,215.3,300,211.3,304,215.3,300,206.3" style="stroke:#181818;stroke-width:1.0;"/><text fill="#000000" font-family="sans-serif" font-size="13" lengthAdjust="spacing" textLength="42" x="257" y="234.4883">access</text></g><!--MD5=[096994c54eb115853276043c9e45932b]
link apacheHttp to catalogService--><g id="link_apacheHttp_catalogService"><path d="M241.88,182 C182.83,182 100,182 100,182 C100,182 100,129.36 100,97.07 " fill="none" id="apacheHttp-catalogService" style="stroke:#181818;stroke-width:1.0;"/><text fill="#000000" font-family="sans-serif" font-size="13" lengthAdjust="spacing" textLength="34" x="86.48" y="171.0283">REST</text><path d="M141.7252,174.9289 A10,10 0 0 0 141.7252 189.0711" fill="none" style="stroke:#181818;stroke-width:1.5;"/><ellipse cx="148.7963" cy="182" fill="#FFFFFF" rx="6" ry="6" style="stroke:#181818;stroke-width:1.5;"/></g><!--MD5=[0704f5aac48ed41e1334b358c6438dfe]
link customerService to apacheHttp--><g id="link_customerService_apacheHttp"><path d="M506,97.07 C506,129.36 506,182 506,182 C506,182 419.12,182 358.21,182 " fill="none" id="customerService-apacheHttp" style="stroke:#181818;stroke-width:1.0;"/><text fill="#000000" font-family="sans-serif" font-size="13" lengthAdjust="spacing" textLength="34" x="432.57" y="171.0283">REST</text><path d="M462.0173,189.0711 A10,10 0 0 0 462.0173 174.9289" fill="none" style="stroke:#181818;stroke-width:1.5;"/><ellipse cx="454.9462" cy="182" fill="#FFFFFF" rx="6" ry="6" style="stroke:#181818;stroke-width:1.5;"/></g><!--MD5=[0a9966b526919f917e991b6f8b7d2eb6]
@startuml
'https://plantuml.com/component-diagram
skinparam linetype ortho
skinparam nodesep 70

actor user
node "microservice-kubernetes-demo" {
    component "catalog-service" as catalogService
    component "customer-service" as customerService
    component "order-service" as orderService
    component "apache-http" as apacheHttp
}

catalogService -[hidden]> orderService
orderService -[hidden]> customerService
orderService -[hidden]-> apacheHttp

user -up-> apacheHttp: access

catalogService -left(0- apacheHttp: REST
customerService -(0- apacheHttp: REST
orderService -down(0- apacheHttp: REST

catalogService -right(0- orderService: REST
customerService -left(0- orderService: REST
@enduml

@startuml
skinparam linetype ortho
skinparam nodesep 70

actor user
node "microservice-kubernetes-demo" {
    component "catalog-service" as catalogService
    component "customer-service" as customerService
    component "order-service" as orderService
    component "apache-http" as apacheHttp
}

catalogService -[hidden]> orderService
orderService -[hidden]> customerService
orderService -[hidden]-> apacheHttp

user -up-> apacheHttp: access

catalogService -left(0- apacheHttp: REST
customerService -(0- apacheHttp: REST
orderService -down(0- apacheHttp: REST

catalogService -right(0- orderService: REST
customerService -left(0- orderService: REST
@enduml

PlantUML version 1.2022.13(Sat Nov 19 14:22:17 CET 2022)
(GPL source distribution)
Java Runtime: OpenJDK Runtime Environment
JVM: OpenJDK 64-Bit Server VM
Default Encoding: Cp1252
Language: en
Country: US
--></g></svg>