<?xml version="1.0" encoding="UTF-8" standalone="no"?><svg xmlns="http://www.w3.org/2000/svg" xmlns:xlink="http://www.w3.org/1999/xlink" contentStyleType="text/css" height="407px" preserveAspectRatio="none" style="width:783px;height:407px;background:#FFFFFF;" version="1.1" viewBox="0 0 783 407" width="783px" zoomAndPan="magnify"><defs/><g><!--MD5=[c4d2f13e270707b29bc0178a3f0c9b6c]
cluster microservice-kubernetes-demo--><g id="cluster_microservice-kubernetes-demo"><polygon fill="none" points="124,16,134,6,766,6,766,380,756,390,124,390,124,16" style="stroke:#181818;stroke-width:1.0;"/><line style="stroke:#181818;stroke-width:1.0;" x1="756" x2="766" y1="16" y2="6"/><line style="stroke:#181818;stroke-width:1.0;" x1="124" x2="756" y1="16" y2="16"/><line style="stroke:#181818;stroke-width:1.0;" x1="756" x2="756" y1="16" y2="390"/><text fill="#000000" font-family="sans-serif" font-size="14" font-weight="bold" lengthAdjust="spacing" textLength="222" x="330" y="34.1074">microservice-kubernetes-demo</text></g><!--MD5=[b1a37ddebaea755f3c5b50dd79452b03]
cluster demoCatalogCustomer--><g id="cluster_demoCatalogCustomer"><rect fill="none" height="294" rx="2.5" ry="2.5" style="stroke:#181818;stroke-width:1.0;stroke-dasharray:7.0,7.0;" width="182" x="560" y="72"/><text fill="#000000" font-family="sans-serif" font-size="14" font-weight="bold" lengthAdjust="spacing" textLength="166" x="568" y="89.1074">demo-catalog-customer</text></g><!--MD5=[c196d8beaffca70a84ba6b39156f3cd5]
cluster demoOrder--><g id="cluster_demoOrder"><rect fill="none" height="156" rx="2.5" ry="2.5" style="stroke:#181818;stroke-width:1.0;stroke-dasharray:7.0,7.0;" width="156" x="325" y="56"/><text fill="#000000" font-family="sans-serif" font-size="14" font-weight="bold" lengthAdjust="spacing" textLength="83" x="361.5" y="73.1074">demo-order</text></g><!--MD5=[93739039574f70115ea07e49b6a8c076]
entity apacheHttp--><g id="elem_apacheHttp"><rect fill="#F1F1F1" height="48.6211" rx="2.5" ry="2.5" style="stroke:#181818;stroke-width:0.5;" width="116" x="140" y="225.5"/><rect fill="#F1F1F1" height="10" style="stroke:#181818;stroke-width:0.5;" width="15" x="236" y="230.5"/><rect fill="#F1F1F1" height="2" style="stroke:#181818;stroke-width:0.5;" width="4" x="234" y="232.5"/><rect fill="#F1F1F1" height="2" style="stroke:#181818;stroke-width:0.5;" width="4" x="234" y="236.5"/><text fill="#000000" font-family="sans-serif" font-size="14" lengthAdjust="spacing" textLength="76" x="155" y="260.6074">apache-http</text></g><!--MD5=[4a70138af477b1cd84c8d729c357e63a]
entity catalogController--><g id="elem_catalogController"><ellipse cx="651" cy="256" fill="#F1F1F1" rx="8" ry="8" style="stroke:#181818;stroke-width:0.5;"/><text fill="#000000" font-family="sans-serif" font-size="14" lengthAdjust="spacing" textLength="111" x="595.5" y="288.1074">CatalogController</text></g><!--MD5=[6d157df9eeb2c12523ae9230fb77cda8]
entity customerController--><g id="elem_customerController"><ellipse cx="651" cy="118" fill="#F1F1F1" rx="8" ry="8" style="stroke:#181818;stroke-width:0.5;"/><text fill="#000000" font-family="sans-serif" font-size="14" lengthAdjust="spacing" textLength="123" x="589.5" y="150.1074">CustomerController</text></g><!--MD5=[307fcf1ac587d995cdd473ca6249c460]
entity catalogService--><g id="elem_catalogService"><rect fill="#F1F1F1" height="48.6211" rx="2.5" ry="2.5" style="stroke:#181818;stroke-width:0.5;" width="136" x="583" y="300.5"/><rect fill="#F1F1F1" height="10" style="stroke:#181818;stroke-width:0.5;" width="15" x="699" y="305.5"/><rect fill="#F1F1F1" height="2" style="stroke:#181818;stroke-width:0.5;" width="4" x="697" y="307.5"/><rect fill="#F1F1F1" height="2" style="stroke:#181818;stroke-width:0.5;" width="4" x="697" y="311.5"/><text fill="#000000" font-family="sans-serif" font-size="14" lengthAdjust="spacing" textLength="96" x="598" y="335.6074">catalog-service</text></g><!--MD5=[56a27ee63330785e4c7dffb868b14680]
entity customerService--><g id="elem_customerService"><rect fill="#F1F1F1" height="48.6211" rx="2.5" ry="2.5" style="stroke:#181818;stroke-width:0.5;" width="148" x="577" y="162.5"/><rect fill="#F1F1F1" height="10" style="stroke:#181818;stroke-width:0.5;" width="15" x="705" y="167.5"/><rect fill="#F1F1F1" height="2" style="stroke:#181818;stroke-width:0.5;" width="4" x="703" y="169.5"/><rect fill="#F1F1F1" height="2" style="stroke:#181818;stroke-width:0.5;" width="4" x="703" y="173.5"/><text fill="#000000" font-family="sans-serif" font-size="14" lengthAdjust="spacing" textLength="108" x="592" y="197.6074">customer-service</text></g><!--MD5=[e955d333de4dcc85bd126188c66b5a11]
entity orderController--><g id="elem_orderController"><ellipse cx="403" cy="102" fill="#F1F1F1" rx="8" ry="8" style="stroke:#181818;stroke-width:0.5;"/><text fill="#000000" font-family="sans-serif" font-size="14" lengthAdjust="spacing" textLength="99" x="353.5" y="134.1074">OrderController</text></g><!--MD5=[bbcdbc4a7a2929ceb9b262f5fbbfa9e9]
entity orderService--><g id="elem_orderService"><rect fill="#F1F1F1" height="48.6211" rx="2.5" ry="2.5" style="stroke:#181818;stroke-width:0.5;" width="124" x="341" y="146.5"/><rect fill="#F1F1F1" height="10" style="stroke:#181818;stroke-width:0.5;" width="15" x="445" y="151.5"/><rect fill="#F1F1F1" height="2" style="stroke:#181818;stroke-width:0.5;" width="4" x="443" y="153.5"/><rect fill="#F1F1F1" height="2" style="stroke:#181818;stroke-width:0.5;" width="4" x="443" y="157.5"/><text fill="#000000" font-family="sans-serif" font-size="14" lengthAdjust="spacing" textLength="84" x="356" y="181.6074">order-service</text></g><!--MD5=[8fc3522a43f8c7199df5e09e5bb0188e]
entity user--><g id="elem_user"><ellipse cx="20" cy="219" fill="#F1F1F1" rx="8" ry="8" style="stroke:#181818;stroke-width:0.5;"/><path d="M20,227 L20,254 M7,235 L33,235 M20,254 L7,269 M20,254 L33,269 " fill="none" style="stroke:#181818;stroke-width:0.5;"/><text fill="#000000" font-family="sans-serif" font-size="14" lengthAdjust="spacing" textLength="28" x="6" y="285.6074">user</text></g><!--MD5=[33e2068bb5fcf4e4caebe426caae6cde]
link catalogService to catalogController--><g id="link_catalogService_catalogController"><path d="M651,300.47 C651,288.66 651,276.85 651,265.03 " fill="none" id="catalogService-catalogController" style="stroke:#181818;stroke-width:1.0;"/></g><!--MD5=[59b3008419c81f2a6ee2c25f18a0ed9e]
link orderService to catalogController--><g id="link_orderService_catalogController"><path d="M465.16,190.12 C473.24,192.94 481.36,195.94 489,199 C517.79,210.54 522.94,218.17 552,229 C581.52,240 617.53,248.79 636.62,253.1 " fill="none" id="orderService-to-catalogController" style="stroke:#181818;stroke-width:1.0;stroke-dasharray:7.0,7.0;"/><polygon fill="#181818" points="641.97,254.29,634.0557,248.428,637.0897,253.2023,632.3154,256.2364,641.97,254.29" style="stroke:#181818;stroke-width:1.0;"/><text fill="#000000" font-family="sans-serif" font-size="13" lengthAdjust="spacing" textLength="21" x="498" y="199.0283">use</text></g><!--MD5=[d13607063eedbf2e888359df62d264ec]
link apacheHttp to catalogController--><g id="link_apacheHttp_catalogController"><path d="M234.62,274.56 C257.13,288.55 287.45,304.71 317,312 C391.22,330.31 414.33,328.36 489,312 C519.11,305.4 523.05,293.57 552,283 C581.6,272.19 617.57,263.33 636.64,258.95 " fill="none" id="apacheHttp-to-catalogController" style="stroke:#181818;stroke-width:1.0;stroke-dasharray:7.0,7.0;"/><polygon fill="#181818" points="641.99,257.74,632.3247,255.8475,637.1159,258.8549,634.1085,263.6461,641.99,257.74" style="stroke:#181818;stroke-width:1.0;"/><text fill="#000000" font-family="sans-serif" font-size="13" lengthAdjust="spacing" textLength="21" x="392.5" y="308.0283">use</text></g><!--MD5=[91698edf6e7c521ebbb833ac498bc553]
link customerService to customerController--><g id="link_customerService_customerController"><path d="M651,162.47 C651,150.66 651,138.85 651,127.03 " fill="none" id="customerService-customerController" style="stroke:#181818;stroke-width:1.0;"/></g><!--MD5=[36fcd6913a50ebd11cbcf1160b512982]
link orderService to customerController--><g id="link_orderService_customerController"><path d="M465.13,157.83 C522.7,145.43 604.73,127.75 636.61,120.89 " fill="none" id="orderService-to-customerController" style="stroke:#181818;stroke-width:1.0;stroke-dasharray:7.0,7.0;"/><polygon fill="#181818" points="641.62,119.8,631.9833,117.7669,636.7302,120.8437,633.6533,125.5906,641.62,119.8" style="stroke:#181818;stroke-width:1.0;"/><text fill="#000000" font-family="sans-serif" font-size="13" lengthAdjust="spacing" textLength="21" x="498" y="143.0283">use</text></g><!--MD5=[52e4ed78a5428d86bedbf1e2263b8b3a]
link apacheHttp to customerController--><g id="link_apacheHttp_customerController"><path d="M256.22,263.54 C327.33,276.68 448.08,286.33 520,222 C547.62,197.29 524.21,169.52 552,145 C576.3,123.57 616.15,118.99 636.75,118.11 " fill="none" id="apacheHttp-to-customerController" style="stroke:#181818;stroke-width:1.0;stroke-dasharray:7.0,7.0;"/><polygon fill="#181818" points="641.78,117.96,632.6588,114.2447,636.7825,118.1171,632.9101,122.2407,641.78,117.96" style="stroke:#181818;stroke-width:1.0;"/><text fill="#000000" font-family="sans-serif" font-size="13" lengthAdjust="spacing" textLength="21" x="392.5" y="242.0283">use</text></g><!--MD5=[748352319a66509d871d5137eade1d21]
link orderService to orderController--><g id="link_orderService_orderController"><path d="M403,146.47 C403,134.66 403,122.85 403,111.03 " fill="none" id="orderService-orderController" style="stroke:#181818;stroke-width:1.0;"/></g><!--MD5=[57f619004a7b46f47d6c5729ccadbbc6]
link apacheHttp to orderController--><g id="link_apacheHttp_orderController"><path d="M217.13,225.13 C238.24,197.86 275.55,154.57 317,129 C340.17,114.71 371.6,107.31 389.02,104.08 " fill="none" id="apacheHttp-to-orderController" style="stroke:#181818;stroke-width:1.0;stroke-dasharray:7.0,7.0;"/><polygon fill="#181818" points="393.96,103.21,384.3998,100.8429,389.0368,104.083,385.7967,108.72,393.96,103.21" style="stroke:#181818;stroke-width:1.0;"/><text fill="#000000" font-family="sans-serif" font-size="13" lengthAdjust="spacing" textLength="21" x="287" y="133.0283">use</text></g><!--MD5=[a3bb3d0549b2ff6bdb3f02a039b2daee]
link user to apacheHttp--><g id="link_user_apacheHttp"><path d="M34.23,250 C55.33,250 97.95,250 134.29,250 " fill="none" id="user-to-apacheHttp" style="stroke:#181818;stroke-width:1.0;"/><polygon fill="#181818" points="139.6,250,130.6,246,134.6,250,130.6,254,139.6,250" style="stroke:#181818;stroke-width:1.0;"/><text fill="#000000" font-family="sans-serif" font-size="13" lengthAdjust="spacing" textLength="42" x="65" y="246.0283">access</text></g><!--MD5=[d20ea5778280675f2839a4bd1904047f]
@startuml
'https://plantuml.com/component-diagram
left to right direction
actor user
node "microservice-kubernetes-demo" {
    rectangle "demo-catalog-customer" as demoCatalogCustomer #line.dashed {
        interface CatalogController as catalogController
        interface CustomerController as customerController

        component "catalog-service" as catalogService
        component "customer-service" as customerService
    }


    rectangle "demo-order" as demoOrder #line.dashed {
        interface OrderController as orderController

        component "order-service" as orderService
    }

    component "apache-http" as apacheHttp
}

catalogService - catalogController
orderService ..> catalogController: use
apacheHttp ..> catalogController: use

customerService - customerController
orderService ..> customerController: use
apacheHttp ..> customerController: use

orderService - orderController
apacheHttp ..> orderController: use

user - -> apacheHttp: access
@enduml

@startuml
left to right direction
actor user
node "microservice-kubernetes-demo" {
    rectangle "demo-catalog-customer" as demoCatalogCustomer #line.dashed {
        interface CatalogController as catalogController
        interface CustomerController as customerController

        component "catalog-service" as catalogService
        component "customer-service" as customerService
    }


    rectangle "demo-order" as demoOrder #line.dashed {
        interface OrderController as orderController

        component "order-service" as orderService
    }

    component "apache-http" as apacheHttp
}

catalogService - catalogController
orderService ..> catalogController: use
apacheHttp ..> catalogController: use

customerService - customerController
orderService ..> customerController: use
apacheHttp ..> customerController: use

orderService - orderController
apacheHttp ..> orderController: use

user - -> apacheHttp: access
@enduml

PlantUML version 1.2022.13(Sat Nov 19 14:22:17 CET 2022)
(GPL source distribution)
Java Runtime: OpenJDK Runtime Environment
JVM: OpenJDK 64-Bit Server VM
Default Encoding: Cp1252
Language: en
Country: US
--></g></svg>