<?xml version="1.0" encoding="UTF-8" standalone="no"?><svg xmlns="http://www.w3.org/2000/svg" xmlns:xlink="http://www.w3.org/1999/xlink" contentStyleType="text/css" height="559px" preserveAspectRatio="none" style="width:429px;height:559px;background:#FFFFFF;" version="1.1" viewBox="0 0 429 559" width="429px" zoomAndPan="magnify"><defs/><g><!--MD5=[c4d2f13e270707b29bc0178a3f0c9b6c]
cluster microservice-kubernetes-demo--><g id="cluster_microservice-kubernetes-demo"><polygon fill="none" points="16,16,26,6,412,6,412,387,402,397,16,397,16,16" style="stroke:#181818;stroke-width:1.0;"/><line style="stroke:#181818;stroke-width:1.0;" x1="402" x2="412" y1="16" y2="6"/><line style="stroke:#181818;stroke-width:1.0;" x1="16" x2="402" y1="16" y2="16"/><line style="stroke:#181818;stroke-width:1.0;" x1="402" x2="402" y1="16" y2="397"/><text fill="#000000" font-family="sans-serif" font-size="14" font-weight="bold" lengthAdjust="spacing" textLength="222" x="99" y="34.1074">microservice-kubernetes-demo</text></g><!--MD5=[307fcf1ac587d995cdd473ca6249c460]
entity catalogService--><g id="elem_catalogService"><rect fill="#F1F1F1" height="48.6211" rx="2.5" ry="2.5" style="stroke:#181818;stroke-width:0.5;" width="136" x="242" y="48"/><rect fill="#F1F1F1" height="10" style="stroke:#181818;stroke-width:0.5;" width="15" x="358" y="53"/><rect fill="#F1F1F1" height="2" style="stroke:#181818;stroke-width:0.5;" width="4" x="356" y="55"/><rect fill="#F1F1F1" height="2" style="stroke:#181818;stroke-width:0.5;" width="4" x="356" y="59"/><text fill="#000000" font-family="sans-serif" font-size="14" lengthAdjust="spacing" textLength="96" x="257" y="83.1074">catalog-service</text></g><!--MD5=[56a27ee63330785e4c7dffb868b14680]
entity customerService--><g id="elem_customerService"><rect fill="#F1F1F1" height="48.6211" rx="2.5" ry="2.5" style="stroke:#181818;stroke-width:0.5;" width="148" x="48" y="48"/><rect fill="#F1F1F1" height="10" style="stroke:#181818;stroke-width:0.5;" width="15" x="176" y="53"/><rect fill="#F1F1F1" height="2" style="stroke:#181818;stroke-width:0.5;" width="4" x="174" y="55"/><rect fill="#F1F1F1" height="2" style="stroke:#181818;stroke-width:0.5;" width="4" x="174" y="59"/><text fill="#000000" font-family="sans-serif" font-size="14" lengthAdjust="spacing" textLength="108" x="63" y="83.1074">customer-service</text></g><!--MD5=[bbcdbc4a7a2929ceb9b262f5fbbfa9e9]
entity orderService--><g id="elem_orderService"><rect fill="#F1F1F1" height="48.6211" rx="2.5" ry="2.5" style="stroke:#181818;stroke-width:0.5;" width="124" x="152" y="190"/><rect fill="#F1F1F1" height="10" style="stroke:#181818;stroke-width:0.5;" width="15" x="256" y="195"/><rect fill="#F1F1F1" height="2" style="stroke:#181818;stroke-width:0.5;" width="4" x="254" y="197"/><rect fill="#F1F1F1" height="2" style="stroke:#181818;stroke-width:0.5;" width="4" x="254" y="201"/><text fill="#000000" font-family="sans-serif" font-size="14" lengthAdjust="spacing" textLength="84" x="167" y="225.1074">order-service</text></g><!--MD5=[93739039574f70115ea07e49b6a8c076]
entity apacheHttp--><g id="elem_apacheHttp"><rect fill="#F1F1F1" height="48.6211" rx="2.5" ry="2.5" style="stroke:#181818;stroke-width:0.5;" width="116" x="156" y="332"/><rect fill="#F1F1F1" height="10" style="stroke:#181818;stroke-width:0.5;" width="15" x="252" y="337"/><rect fill="#F1F1F1" height="2" style="stroke:#181818;stroke-width:0.5;" width="4" x="250" y="339"/><rect fill="#F1F1F1" height="2" style="stroke:#181818;stroke-width:0.5;" width="4" x="250" y="343"/><text fill="#000000" font-family="sans-serif" font-size="14" lengthAdjust="spacing" textLength="76" x="171" y="367.1074">apache-http</text></g><!--MD5=[8fc3522a43f8c7199df5e09e5bb0188e]
entity user--><g id="elem_user"><ellipse cx="214" cy="484.5" fill="#F1F1F1" rx="8" ry="8" style="stroke:#181818;stroke-width:0.5;"/><path d="M214,492.5 L214,519.5 M201,500.5 L227,500.5 M214,519.5 L201,534.5 M214,519.5 L227,534.5 " fill="none" style="stroke:#181818;stroke-width:0.5;"/><text fill="#000000" font-family="sans-serif" font-size="14" lengthAdjust="spacing" textLength="28" x="200" y="551.1074">user</text></g><!--MD5=[9ad278ad51a0a0a88b6cb1a0eff0616a]
link apacheHttp to user--><g id="link_apacheHttp_user"><path d="M214,381 C214,406.07 214,446.16 214,475.88 " fill="none" id="apacheHttp-user" style="stroke:#181818;stroke-width:1.0;"/><text fill="#000000" font-family="sans-serif" font-size="13" lengthAdjust="spacing" textLength="32" x="222" y="435.0283">HTTP</text><path d="M206.9289,433.7673 A10,10 0 0 0 221.0711 433.7673" fill="none" style="stroke:#181818;stroke-width:1.5;"/><ellipse cx="214" cy="426.6962" fill="#FFFFFF" rx="6" ry="6" style="stroke:#181818;stroke-width:1.5;"/></g><!--MD5=[df99375ec059ba1910f3807e627a5bc9]
link catalogService to apacheHttp--><g id="link_catalogService_apacheHttp"><path d="M319.76,97.05 C323.07,106.23 326.35,116.94 328,127 C330.37,141.47 330.74,145.59 328,160 C315.33,226.65 310.34,246.03 272,302 C264.49,312.96 254.34,323.3 244.64,331.91 " fill="none" id="catalogService-apacheHttp" style="stroke:#181818;stroke-width:1.0;"/><text fill="#000000" font-family="sans-serif" font-size="13" lengthAdjust="spacing" textLength="34" x="329" y="220.0283">REST</text><path d="M300.512,239.1197 A10,10 0 0 0 313.7409 244.1192" fill="none" style="stroke:#181818;stroke-width:1.5;"/><ellipse cx="309.6262" cy="235.005" fill="#FFFFFF" rx="6" ry="6" style="stroke:#181818;stroke-width:1.5;"/></g><!--MD5=[0704f5aac48ed41e1334b358c6438dfe]
link customerService to apacheHttp--><g id="link_customerService_apacheHttp"><path d="M107.71,97.17 C89.77,130.15 63.78,191.24 85,239 C102.95,279.4 142.6,311.71 173.24,331.97 " fill="none" id="customerService-apacheHttp" style="stroke:#181818;stroke-width:1.0;"/><text fill="#000000" font-family="sans-serif" font-size="13" lengthAdjust="spacing" textLength="34" x="93" y="220.0283">REST</text><path d="M81.4091,248.333 A10,10 0 0 0 94.333 242.5909" fill="none" style="stroke:#181818;stroke-width:1.5;"/><ellipse cx="85" cy="239" fill="#FFFFFF" rx="6" ry="6" style="stroke:#181818;stroke-width:1.5;"/></g><!--MD5=[8357b073305a7ecbb6e38f1716b0b0da]
link orderService to apacheHttp--><g id="link_orderService_apacheHttp"><path d="M214,239.25 C214,264.99 214,305.84 214,331.63 " fill="none" id="orderService-apacheHttp" style="stroke:#181818;stroke-width:1.0;"/><text fill="#000000" font-family="sans-serif" font-size="13" lengthAdjust="spacing" textLength="34" x="222" y="291.0283">REST</text><path d="M206.9289,292.4923 A10,10 0 0 0 221.0711 292.4923" fill="none" style="stroke:#181818;stroke-width:1.5;"/><ellipse cx="214" cy="285.4213" fill="#FFFFFF" rx="6" ry="6" style="stroke:#181818;stroke-width:1.5;"/></g><!--MD5=[66cbf4c08a0018c7f3463cbe8258e9c8]
link catalogService to orderService--><g id="link_catalogService_orderService"><path d="M293.71,97.25 C276.06,122.99 248.05,163.84 230.36,189.63 " fill="none" id="catalogService-orderService" style="stroke:#181818;stroke-width:1.0;"/><text fill="#000000" font-family="sans-serif" font-size="13" lengthAdjust="spacing" textLength="34" x="278" y="149.0283">REST</text><path d="M252.2194,145.254 A10,10 0 0 0 263.8827 153.2519" fill="none" style="stroke:#181818;stroke-width:1.5;"/><ellipse cx="262.05" cy="143.4213" fill="#FFFFFF" rx="6" ry="6" style="stroke:#181818;stroke-width:1.5;"/></g><!--MD5=[922d421daf7bc4ebc0becae2deb8b585]
link customerService to orderService--><g id="link_customerService_orderService"><path d="M119.52,97.29 C118.77,115.73 120.39,141.23 132,160 C139.51,172.14 150.92,182.08 162.86,189.95 " fill="none" id="customerService-orderService" style="stroke:#181818;stroke-width:1.0;"/><text fill="#000000" font-family="sans-serif" font-size="13" lengthAdjust="spacing" textLength="34" x="140" y="149.0283">REST</text><path d="M129.706,169.7333 A10,10 0 0 0 141.7333 162.294" fill="none" style="stroke:#181818;stroke-width:1.5;"/><ellipse cx="132" cy="160" fill="#FFFFFF" rx="6" ry="6" style="stroke:#181818;stroke-width:1.5;"/></g><!--MD5=[ab5ddc0259ddd52d655b0d0a8de3ad81]
@startuml
'https://plantuml.com/component-diagram

actor user
node "microservice-kubernetes-demo" {
    component "catalog-service" as catalogService
    component "customer-service" as customerService
    component "order-service" as orderService
    component "apache-http" as apacheHttp
}

user -up(0- apacheHttp: HTTP

catalogService -0)- apacheHttp: REST
customerService -0)- apacheHttp: REST
orderService -0)- apacheHttp: REST

catalogService -0)- orderService: REST
customerService -0)- orderService: REST
@enduml

@startuml

actor user
node "microservice-kubernetes-demo" {
    component "catalog-service" as catalogService
    component "customer-service" as customerService
    component "order-service" as orderService
    component "apache-http" as apacheHttp
}

user -up(0- apacheHttp: HTTP

catalogService -0)- apacheHttp: REST
customerService -0)- apacheHttp: REST
orderService -0)- apacheHttp: REST

catalogService -0)- orderService: REST
customerService -0)- orderService: REST
@enduml

PlantUML version 1.2022.13(Sat Nov 19 14:22:17 CET 2022)
(GPL source distribution)
Java Runtime: OpenJDK Runtime Environment
JVM: OpenJDK 64-Bit Server VM
Default Encoding: Cp1252
Language: en
Country: US
--></g></svg>